<?xml version="1.0" encoding="UTF-8"?>
<svg id="Layer_1" width="200px" height="130px" data-name="Layer 1" xmlns="http://www.w3.org/2000/svg" version="1.1" viewBox="0 0 2471.11 1731.56">
  <defs>
    <style>
      .cls-1 {
        fill: #29abe2;
      }

      .cls-1, .cls-2 {
        fill-rule: evenodd;
      }

      .cls-1, .cls-2, .cls-3, .cls-4 {
        stroke-width: 0px;
      }

      .cls-2, .cls-3 {
        fill: #333230;
      }

      .cls-4 {
        fill: #fff;
      }
      .cls-5 {
        fill:transparent;
      }
    </style>
  </defs>
  <rect class="cls-5" width="2471.11" height="1731.56"/>
  <path class="cls-4" d="M2144.57,1109.87h-39.58s2.29-3.24,2.29-3.24h8.24s84.91-120.08,84.91-120.08h-39.77s11.38-16.1,11.38-16.1h-143.41c.17-16.13-11.71-29.46-27.34-30.51-8.03-.53-13.43-.79-19.17-1.07-7.41-.36-15.08-.73-29.98-1.76-27.49-2.84-37.73-4.99-46.44-9.47,1.51-.89,3.02-1.8,4.52-2.71,1.13-.69,2.25-1.37,3.46-2.13l.7-.45c1.82-1.18,4.22-2.86,6.58-5.38l.74-.78.69-.86c.88-1.09,1.68-2.23,2.39-3.41l.9-1.53.59-1.29c.73-1.59,1.32-3.25,1.76-4.94l.49-1.85.23-2.01c.36-3.14.22-6.3-.45-9.47l-.03-.13c-.52-2.37-1.35-4.69-2.45-6.89l-.24-.47c-.22-.42-.47-.87-.74-1.31-.48-.82-1-1.62-1.53-2.35-.24-.33-.49-.67-.81-1.08l-.08-.1c-.33-.41-.69-.84-1.08-1.29-.14-.16-.29-.33-.57-.64l-.15-.16-.25-.29-1.03-1.02-1.15-1.1c-.76-.71-1.53-1.41-2.3-2.08-1.07-.92-2.22-1.86-3.55-2.88l-.67-.51c-1.17-.87-2.35-1.71-3.53-2.49l-.63-.41c-1.12-.73-2.24-1.41-3.27-2.01l-.55-.32c-1.16-.66-2.38-1.31-3.79-2.02l-.7-.35c-1.3-.64-2.5-1.19-3.77-1.73l-.42-.17c-1.13-.47-2.28-.93-3.53-1.39l-.62-.23c-1.19-.43-2.44-.85-3.8-1.28l-.67-.21c-2.91-.89-5.93-1.65-9.01-2.29l-.21-.04c-1.34-.27-2.76-.53-4.35-.78-.28-.04-1.33-.2-1.62-.24-.47-.07-.94-.14-1.46-.21-.48-.06-.96-.11-1.45-.16-.75-.09-1.51-.17-2.23-.23-.3-.03-.6-.07-.88-.09-3.65-3.05-7.31-6.09-10.96-9.13l-5.68-4.72c-6.73-5.59-13.45-11.18-20.17-16.79-9.87-8.23-19.71-16.49-29.56-24.75l-12.1-10.15c-1.07-.9-2.13-1.8-3.19-2.7l-.54-.46c-1.86-1.58-3.7-3.14-5.63-4.71l-2.2-2.2-2.46-1.23c-.26-.17-.53-.33-.78-.48-.48-.28-.96-.56-1.36-.76-1.01-.54-2.06-1.05-3.13-1.51-.37-.16-.73-.31-1.25-.51-.87-.34-1.71-.63-2.56-.9l-.15-.05-.8-.23-.59-.16c-1.25-.33-2.52-.6-3.91-.84-.38-.06-.76-.12-1.13-.17-.89-.12-1.81-.22-2.73-.29h-.07c-.35-.03-.69-.06-1.07-.08-.78-.04-1.56-.06-2.34-.06-.39,0-.79,0-1.17.02-3.97.11-7.97.73-11.89,1.85l-.43.13c-.77.23-1.55.48-2.32.75l-.55.16-1.27.52c-3.05,1.21-5.92,2.71-8.57,4.47l-.13.08c-17.22-1.89-34.45-3.71-50.62-5.4l-1.16-.12c-2.06-1.65-4.13-3.3-6.2-4.94-.72-.57-4.12-3.25-4.12-3.25-3.07-2.43-6.14-4.85-9.18-7.25l-2.06-1.63c-.98-.78-1.96-1.56-2.95-2.32-1.03-.81-2.07-1.61-3.09-2.41,0,0-1.32-1.03-2.74-2.13-1.6-6.28-3.2-12.56-4.8-18.84l-4.06-15.88c-5.97-23.31-11.94-46.62-17.94-69.99-.16-.62-.31-1.24-.47-1.87l-.06-.23c-.5-2.02-1.07-4.31-1.79-6.77-.38-1.28-.71-2.36-1.08-3.43-.09-.27-.18-.55-.26-.83l-.11-.4c-.06-.23-.13-.46-.19-.71l-.09-.38c-.05-.24-.11-.48-.16-.75l-.09-.42c-.07-.36-.13-.72-.2-1.13-.05-.34-.1-.68-.15-1.04-.05-.42-.1-.83-.13-1.23,0,0-.1-1.22-.12-1.46l-.04-.6c-.02-.34-.04-.69-.05-1.05l-.02-.53c-.02-.5-.03-.99-.04-1.42v-.19c-.01-.55-.01-1.09-.01-1.64l.03-2.63.04-1.86.06-2.07c.04-1.2.02-2.32-.05-3.44-.1-1.6-.31-3.15-.61-4.6l-.41-1.95-.41-1.17c-1.35-4.28-3.65-8.25-6.67-11.53l-1.16-1.33-1.79-1.49c-2.82-2.34-6.05-4.18-9.6-5.46-1.12-.41-2.26-.75-3.47-1.05-13.44-3.37-27.12-6.86-40.42-10.27l-17.27-4.41c-3.11-.79-6.23-1.57-9.34-2.35l-.75-.19c-3.13-.78-6.26-1.57-9.33-2.35l-2.53-.66c-1.27-.33-2.53-.66-3.82-1-2.97-.79-5.97-1.2-8.92-1.2-.33,0-.66,0-.95.01-.89.03-1.77.09-2.66.2-3.51.39-6.88,1.34-10.02,2.82,0,0-.54.26-.67.33l-1.65.66-.71.52-5.13,2.57v.06l-8.61,4.31v9.91l-.41.97c-.14.35-.27.7-.35.91l-.18.49h0s-.08.21-.08.21h0s-.1.26-.1.26c-4.06,1.83-25.19,11.4-25.19,11.4-6.41,2.9-12.82,5.8-19.23,8.71-1.75.79-3.5,1.6-5.25,2.42-2.65,1.23-5.16,2.39-7.68,3.5l-.67.3c-.28.13-.57.25-.91.4-1.16.5-2.29,1.06-3.32,1.65-1.16.65-2.25,1.36-3.28,2.12-.35.26-.69.52-1.02.78-.46.36-.93.75-1.46,1.22-.48.43-.96.89-1.41,1.35l-.59.57-.46.53c-.98-.25-3.16-.8-3.16-.8-2.94-.75-5.87-1.51-8.81-2.29-2.5-.66-5.03-1.13-7.52-1.4l-.33-.05-.96-.08c-1.24-.1-2.49-.15-3.71-.15-.32,0-.65,0-.98.01-1.6.03-3.2.15-4.78.35-3.08.39-6.15,1.1-9.13,2.12-1.4.48-2.81,1.03-4.17,1.64-.99.44-1.99.92-3.05,1.48-.28.14-.55.28-.8.42-1.24.68-2.49,1.34-3.74,2-2.07,1.09-4.14,2.15-6.22,3.2l-.92.47c-2.06,1.04-4.13,2.07-6.2,3.09l-8.03,3.96c-2.28,1.12-4.56,2.25-6.91,3.42l-3.57,1.8c-.92.46-1.84.92-2.75,1.35-.71.33-1.43.71-2.12,1.1-.88.49-1.7,1-2.53,1.58-.86.6-1.69,1.25-2.48,1.93l-.76.61-5.65,5.8-1.2,3.49c-2.16,4.44-2.8,8.41-3.1,11.04-.94,8.37-1.9,16.74-2.85,25.11l-2.24,19.6-.24.72-.22,1.76c-.13.71-.23,1.44-.32,2.2-.26,2.29-.51,4.58-.77,6.87l-61.29-9-17.65-23-11.39-1.31c-1.86-24.95-4.42-58.12-5.6-67.53-2.79-22.3-15.64-35.25-26.74-39.94l-1.43-.6-1.62-.48c-6.08-1.81-59.83-17.85-73.36-22.2-8.65-2.78-17.72-4.19-26.97-4.19-7.77,0-13.23,1.03-14.7,1.34l-.6.13-41.55,10.67c-2.11-5.89-4.43-12.55-6.96-19.92-13.04-37.99-35.8-72.81-47.21-87.41-9.45-12.09-39.3-31.5-63.4-46.05l-30.42-33.24-17.09-2.6-157.7-130.74-10.85.18-75.92-60.29-11.82-21.91-58.53-22.8-61.68,51.17-1.89,53.81-18.64,44.51,6.67,30-10.22,147.05,5.38,11.07-1.72,52.95c-15.46,9.09-27.8,29.55-19.72,54.86,3.63,11.36,11.13,20.83,21.41,27.17,11.12,31.56,13.91,38.35,15.09,40.79-2.58,5.29-4.14,11.14-4.51,17-.75,11.92,3.33,23.5,11.53,32.96-.07,5.32.1,13.13,1.49,24.8,5.17,43.21,30.99,70.03,53.43,80.72,9.91,4.72,23.85,6.92,43.88,6.92,26.01,0,59.28-3.79,93.66-10.67,49.89-9.98,76.95-34.98,88.12-48.08l11.56-4.56,4.19-4.21c.28-.28,28.94-29.1,38.07-37.73,16.5-15.6,13.98-30.44,11.01-37.9-4.84-12.16-16.27-19.42-30.59-19.42-2.37,0-4.47.2-5.8.36-4.47.55-7.4,1.85-11.45,3.64-1.09.48-2.5,1.11-4.06,1.77-1.28-.17-2.57-.26-3.88-.26-2.85,0-5.7.43-8.46,1.27-4.08,1.25-8.1,2.75-11.64,4.08-1.15.43-2.31.87-3.46,1.29-1.55-.26-3.12-.38-4.71-.38s-3.31.14-4.97.42c-8.66,1.47-15.72,2.25-20.91,2.32h-.13c-8.9,0-32.81-13.17-51.37-28.28l-46.26-44.15-1.52.53c-1.03-4.03-2.64-7.84-4.79-11.41l20.38-175.21c91.99,60.97,186.41,123.83,192.32,128.33,5.93,4.62,23.81,18.52,31.92,28.94l14.55,55.4-1.22,7.66,33.41,128.97-14.63,2.35-16.77,52.11c-6.48.22-15.93.38-21.92.47-20.21.34-43.11.72-56.21,2.49-17.49,2.37-33.68,11.67-45.59,26.17-11.57,14.09-18.55,32.26-20.19,52.54-.57,7.05-.44,14.21.37,21.41-2.45.64-4.52,1.23-6.26,1.74-4.47,1.29-5.82,1.68-9.07,1.82-9.7.44-25.06,5.32-58.05,16.83l-.26.09-61.05,6.28c-15.56,1.6-27.29,14.57-27.56,29.99h-27.84c-20.79,0-37.15,3.26-50.02,9.96-15.92,8.26-27.44,22.33-34.22,41.78-2.16,6.15-4.02,13.75-5.68,23.26-4.21,24.28-9.2,52.99-14.32,81.9l-7.27,41.03-76.19,55.92h39.51s-34.97,25.67-34.97,25.67h175.4c-3.52,6.36-5.53,13.69-5.53,21.48v88.92c0,24.61,20.02,44.63,44.63,44.63h1459.67c24.61,0,44.63-20.02,44.63-44.63v-88.92c0-8.32-2.3-16.12-6.28-22.8h39.16s85.9-121.39,85.9-121.39h-39.78s11.4-16.1,11.4-16.1Z"/>
  <path class="cls-2" d="M585.48,313l-20.62-16.32s-3.29-7.75-3.11-10.04c.19-2.29-1.52,8.4,2.16,14.88,3.68,6.48,29.95,29.24,29.95,29.24l-8.38-17.77Z"/>
  <g>
    <g>
      <path class="cls-3" d="M1314.25,699.69c-.54,4.7-1.08,9.41-1.62,14.11-.03.05-.05.12-.08.17.03-.06.05-.12.08-.17.54-4.7,1.08-9.41,1.62-14.11Z"/>
      <path class="cls-3" d="M1490.03,593.21c-.04.16-.09.32-.13.48.04-.16.08-.32.13-.48Z"/>
      <path class="cls-3" d="M1490.03,593.21c.17-.61.35-1.22.56-1.81.11-.31.23-.62.35-.93-.36.9-.65,1.82-.91,2.75Z"/>
      <path class="cls-3" d="M1489.9,593.69c-.24.95-.44,1.91-.61,2.87.17-.97.37-1.92.61-2.87Z"/>
      <path class="cls-3" d="M1854.48,880.51c.23.17.47.32.71.45.24.13.48.24.73.34-.5-.19-.97-.45-1.44-.79Z"/>
      <path class="cls-3" d="M2000.79,970.03c-18.11-1.2-22.49-.98-49.71-2.87-41.27-4.25-51.39-7.8-70.09-20.59-12.01-8.21-24.9-3.13-29.55-4.34-3.69-.96-11.57-.87-21.95-.09,2.52-1.5,4.99-2.97,7.46-4.43,18.39-10.8,36.8-21.57,55.2-32.37,1.3-.76,2.59-1.53,3.88-2.3,1.29-.78,2.57-1.56,3.84-2.36.06-.04.12-.07.18-.11-.06.04-.11.07-.18.11-1.27.8-2.55,1.59-3.84,2.36,1.29-.78,2.57-1.56,3.84-2.36.34-.22.65-.41.91-.59.13-.09.25-.17.36-.25.11-.08.21-.16.29-.23.88-.73.71-1.21-.44-2.36-.11-.11-.24-.24-.37-.36-.13-.13-.28-.26-.43-.41-.48-.45-.96-.89-1.45-1.31-6.38-5.52-13.79-8.96-21.85-11.05-1.24-.32-2.5-.61-3.77-.88-1.86-.38-3.73-.7-5.6-.94-1.25-.16-2.5-.29-3.76-.39s-2.51-.17-3.78-.2c-.63-.02-1.26-.03-1.9-.03-.79,0-1.5-.12-2.16-.38-.25-.09-.49-.21-.73-.34-.24-.13-.47-.28-.71-.45-.16-.11-.31-.24-.47-.37-14.11-11.81-28.29-23.53-42.41-35.32-13.92-11.61-27.79-23.28-41.68-34.93-2.54-2.13-5.05-4.3-7.59-6.42-.85-.71-1.7-1.41-2.57-2.1-2-1.61-4.9-2.3-7.98-2.22-.51.01-1.03.05-1.55.11-.52.06-1.04.14-1.56.24-1.19.23-2.36.58-3.49,1.01-.35.14-.7.28-1.04.44-.47.21-.92.45-1.36.7-.53.3-1.04.61-1.53.96-.59.42-1.14.88-1.65,1.38-.5.49-.96,1.02-1.36,1.59-.2.28-.39.53-.59.75-.2.23-.39.43-.59.61-.6.54-1.23.87-1.95,1.03-.73.17-1.55.17-2.54.06-22.16-2.48-44.34-4.8-66.52-7.11-.26-.03-.5-.07-.75-.12-.72-.13-1.4-.33-2.04-.59-.29-.12-.57-.25-.84-.39-.28-.14-.55-.29-.81-.45-.8-.48-1.57-1.05-2.34-1.67-3-2.4-6.01-4.8-9.02-7.2-6.02-4.79-12.06-9.56-18.13-14.3-1.52-1.19-3.04-2.36-4.56-3.54-1.52-1.18-3.03-2.37-4.56-3.54-.33-.26-.65-.51-.95-.78-.3-.26-.59-.53-.86-.81-.55-.55-1.04-1.12-1.48-1.73-.44-.61-.83-1.24-1.18-1.92s-.64-1.39-.89-2.15c-1.69-6.68-3.39-13.36-5.1-20.04-1.71-6.68-3.42-13.36-5.13-20.04-5.97-23.3-11.94-46.61-17.92-69.91-.44-1.71-.85-3.44-1.29-5.15-.22-.86-.45-1.71-.7-2.56-.25-.85-.51-1.69-.79-2.53-1.06-3.1-1.79-6.23-2.28-9.39-.1-.63-.19-1.26-.27-1.9-.8-6.33-.72-12.73-.5-19.15.02-.54,0-1.01-.09-1.4-.04-.2-.1-.38-.17-.55-.07-.17-.16-.32-.26-.46-.1-.14-.23-.27-.37-.39-.28-.24-.64-.43-1.09-.59-.22-.08-.47-.15-.74-.22-19.24-4.82-38.44-9.77-57.65-14.67-6.56-1.67-13.14-3.28-19.69-4.96-2.19-.56-4.37-1.13-6.55-1.72-1.29-.35-2.3-.31-3.13.09-.37.18-.7.44-1.01.75.31-.32.64-.58,1.01-.75-.62.3-1.14.79-1.6,1.48-.15.23-.3.48-.44.75-.29.55-.54,1.1-.78,1.66-.05.12-.11.25-.16.37.02-.05.04-.1.06-.14-.14.36-.28.71-.41,1.08-.59,1.68-.98,3.41-1.29,5.17-.16.93-.3,1.88-.42,2.82-.09.65-.25,1.19-.5,1.65-.03.06-.07.11-.11.17-.14.23-.31.45-.5.64.12-.12.23-.25.34-.38-.1.13-.21.26-.34.38-.02.02-.04.03-.06.05-.19.17-.4.33-.64.48-.05.03-.12.06-.18.1-.16.1-.33.19-.52.28-9.5,4.27-18.99,8.57-28.48,12.87-.34.16-.69.31-1.03.47-.49.22-.98.44-1.47.66-8.05,3.64-16.11,7.28-24.15,10.93-5,2.27-9.94,4.65-14.98,6.82.84-.36,1.67-.74,2.51-1.11-.84.37-1.67.75-2.51,1.11-.23.1-.44.2-.64.31-.29.17-.55.34-.76.54-.11.1-.21.2-.3.31-.41.48-.64,1.06-.72,1.77,0,.08-.02.15-.03.24-.02.21-.02.44-.01.68.03.84.04,1.68.04,2.52,0,1.68-.01,3.36-.02,5.04,0,.84,0,1.68.01,2.52,0,.23,0,.45-.02.64-.03.39-.11.71-.24.95s-.32.41-.58.5c-.13.05-.28.07-.44.08-.17,0-.35,0-.56-.03-.21-.03-.44-.07-.69-.14-3.09-.79-6.18-1.58-9.27-2.35-6.18-1.55-12.37-3.09-18.54-4.66-3.09-.79-6.17-1.59-9.25-2.4-1.31-.35-2.57-.57-3.81-.67-.62-.05-1.23-.07-1.83-.05-.61.01-1.21.06-1.81.13-1.2.15-2.38.43-3.57.83-.59.2-1.19.44-1.79.7-.6.27-1.2.57-1.81.9-1.35.73-2.71,1.46-4.07,2.18-4.76,2.51-9.57,4.92-14.4,7.3-4.83,2.38-9.67,4.74-14.48,7.15-.25.13-.51.26-.76.39-2.04,1.03-4.07,2.07-6.13,3.04,1.55-.73,3.08-1.5,4.61-2.27-1.53.77-3.06,1.55-4.61,2.27-.17.08-.32.17-.46.26-.14.09-.25.2-.36.31-.32.33-.51.71-.63,1.13-.08.27-.13.56-.17.86-.02.16-.05.33-.07.5-1.2,10.63-2.41,21.26-3.63,31.89.68-5.92,1.35-11.84,2.02-17.76-.67,5.92-1.34,11.84-2.02,17.76-.07.61-.14,1.22-.21,1.82-.54,4.7-1.08,9.41-1.62,14.11-.03.05-.05.12-.08.17-.07.16-.13.32-.18.51-.07.26-.12.55-.15.87-2.03,18.1-4.14,36.18-6.21,54.27-.08.68-.16,1.36-.25,2.04-.14,1.13-.29,2.26-.43,3.4-.14,1.14-.28,2.29-.4,3.43-.01.12-.02.24-.04.36-.11,1.11-.2,2.23-.27,3.34-.04.65-.06,1.29-.08,1.94-.01.62-.06,1.22-.13,1.82-.07.59-.17,1.17-.29,1.74s-.27,1.13-.44,1.68c.11-.35.19-.71.28-1.07-.09.36-.17.72-.28,1.07-.33,1.1-.75,2.17-1.23,3.22-.71,1.57-1.56,3.1-2.44,4.62-.29.5-.58,1.01-.87,1.51.29-.5.57-1.01.87-1.51.44-.76.88-1.52,1.29-2.29-.41.77-.84,1.53-1.29,2.29-.51.87-1,1.74-1.5,2.61-.13.23-.26.46-.4.69-.43-13.9-.99-28.67-1.64-35.89-1.4-15.76-14.88-17.16-14.88-17.16l-75.13-11.03-17.34-22.59-22.77-2.62s-5.42-75.48-7.17-89.49c-1.75-14.01-9.63-17.33-9.63-17.33,0,0-59.36-17.69-74.07-22.42s-27.14-2.1-27.14-2.1l-65.49,16.81s-4.03-8.75-16.28-44.48c-12.26-35.73-33.97-67.95-42.73-79.15-8.76-11.21-59.19-41.33-59.19-41.33l-26.44-28.89-14.97-2.28-155.68-129.06-10.51.18-88.43-70.22-9.63-17.86-33.27-12.96-39.05,32.4-1.63,46.28-17.16,40.98,5.6,25.22-9.98,143.6,5.14,10.56-2.5,77.17s-7.71,3.33-12.78,5.95c-5.08,2.63-11.73,9.54-7.71,22.15,4.03,12.61,17.08,14.8,17.08,14.8,0,0,16.11,46.06,17.95,49.47,1.84,3.41,6.4,17.9,3.08,20.52-3.33,2.63-9.46,13.8.87,24.31,10.33,10.51,3.33,6.66,7.18,38.88,3.85,32.22,22.77,51.49,37.48,58.49,14.71,7.01,63.74,5.26,119.78-5.95,56.04-11.21,76-43.78,76-43.78l13.31-5.25s29.07-29.24,38.7-38.35c9.63-9.11.35-8.58-2.45-8.23-.96.12-12.46,5.93-22.54,8.74-1.35.38.94-3.77-.48-3.34-8.67,2.65-18.19,7.26-27.51,9-1.87.35,1.07-3.07-.8-2.76-9.04,1.53-17.93,2.62-25.38,2.72-27.32.35-70.57-35.37-70.57-35.37l-34.5-32.92-15.06,5.25s-5.43-22.24-6.65-29.07c-1.23-6.83-7.18-10.33-7.18-10.33l26.44-227.31,7.18,5.78,9.28-1.58s207.34,137.29,216.8,144.65c9.46,7.35,27.67,21.72,37.48,34.68.93,1.23,1.97,2.65,3.09,4.22l17.44,66.38-1.23,7.71,39.75,153.41-28.23,4.53-9.81,30.47,9.11,13.66,96.37,3.71-60.61,6.59s-52.88-1.75-61.99,0c-9.11,1.75-65.14.7-85.81,3.5-20.66,2.8-38.88,22.42-41.33,52.89-1.27,15.82,2.28,30.97,7.64,42.92-4.69-.04-12.67.24-21.34,2.01-13.67,2.8-17.31,5.59-28.25,6.08-7.27.33-33.5,9.53-51.09,15.66-1.53.53-3.12.89-4.73,1.05l-61.92,6.37c-2.97.31-2.74,4.7.24,4.7h1422.28c1.2,0,1.26-3.77.06-3.85ZM578.01,671.43c7,7.58,21.37,21.35,42.21,32.49,30.47,16.29,63.4,17.51,53.94,16.11-9.46-1.4-37.3-14.01-43.61-17.86-6.3-3.85-22.76-14.71-30.12-20.31-4.79-3.64-14.39-13.59-20.52-20.1,1.88-7.73,4.74-16.08,8.96-24.91,0,0,24.34,23.82,37.83,33.8,13.48,9.98,40.98,25.04,49.21,27.49,8.23,2.45,33.97,7.71,54.29,2.8,20.32-4.9,27.32-8.41,28.2-7.18.88,1.23-25.57,24.16-25.57,24.16l-14.53,6.83s-18.39,22.24-31.35,28.02c-12.96,5.78-39.05,19.79-68.48,8.93-29.42-10.86-37.48-40.98-37.83-45.18-.25-2.98-6.5-19.92-2.64-45.1ZM1370.81,854.65c0-.48.05-1.06-.14-1.49-.03-.55-.15-1.09-.85-1.24-.72-.15-1.07.52-1.45.98-.34.4-.57.9-.91,1.3-4.21,5.01-12.07,10.35-19.72,4.89-1.75-1.25-3.23-2.75-4.71-4.27-.5-.51-1.24-1.08-1.48-1.73.02-.13.07-.27.16-.42.45-.73,1.51-.42,2.25-.25,4.54,1.01,7.91-.95,10.83-4.12,2.92-3.18,4.81-6.97,6.49-10.88.27-.64.32-1.13.16-1.49.25-1.11-.68-1.4-1.77-1.41-3.45-.02-6.91.11-10.36-.06-2.34-.11-3.78.55-4.65,2.87-.94,2.49-2.36,4.72-5.01,5.92-3.03,1.37-4.77.84-5.68-2.34-.47-1.66-.82-3.3-1.06-4.93-.92-9.04,1-17.68,5.51-25.86,1.65-2.99,3.9-4.65,7.52-4.13,1.34.19,2.87.39,4-.83,1.19-1.28,2.4-2.55,3.57-3.85,4.18-4.65,8.75-4.66,12.95-.12,1.81,1.96,2.75,4.3,3.43,6.79.17.62.31,1.23.43,1.85.91,6.09-.16,12.05-1.43,17.98-.45,2.08-.77,3.56-.83,4.63-.94,3.74-.33,2.62,6.94,3.04,1.52.09,3.15.17,4.39-1.3,3.59-4.28,6.36-8.92,7.06-14.59.14-1.11.41-2.21.66-3.54.56.32.96.49,1.28.74,16.55,12.74,33.09,25.48,49.64,38.21.35.27.62.53.77.77-.09.28-.38.59-.97.93-3.98,2.31-7.92,4.66-11.87,7.01-1.26.75-2.63.96-4.07.98-12.21.17-24.43.37-36.64.55-3.9.06-7.8-.09-11.68.17-1.62.11-2.44-.21-2.75-1.19-.02-.25-.02-.51,0-.8.12-2.91.04-5.84,0-8.76ZM1471.15,821.51c-20.87-1.86-41.73-3.82-62.61-5.64-2.68-.23-4.38-1.64-6.11-3.34.28-.03.47-.05.67-.03,7.82.91,15.66,1.5,23.5,2.2,19.99,1.78,39.96,3.78,59.93,5.65,1.64.15,3.11.61,4.43,1.58.36.26.9.5.95.94-7-.29-13.89-.75-20.76-1.37ZM1500.42,830.43c3.33.24,5.72,1.8,8.1,3.88-7.83-.57-15.14-1.05-22.44-1.65-20.44-1.68-40.88-3.46-61.33-5.07-2.65-.21-4.65-1.23-6.77-3.2.1-.1.25-.12.4-.11,7.5.51,15.01.97,22.51,1.55,19.85,1.53,39.69,3.16,59.54,4.6ZM1447.42,811.15c-15.95-1.34-31.89-2.66-47.85-3.89-3.42-.26-6.53-.98-9.16-3.81,3.29.34,6.33.67,9.37.95,23.15,2.17,46.31,4.32,69.46,6.51,3.38.32,6.96.16,9.77,3-10.58-.93-21.08-1.89-31.58-2.77ZM1445.75,802.95c-19.97-2.05-39.93-4.15-59.88-6.3-3.26-.35-6.79-.2-9.05-3.21.68-.05.98-.1,1.27-.07,9.15.93,18.29,1.87,27.44,2.79,10.02,1.01,20.05,1.98,30.08,3.01,8,.82,16,1.67,23.99,2.56,1.92.21,3.46,1.15,5.19,2.62-6.42-.29-12.73-.76-19.03-1.41ZM1449.49,796.03c-10.73-1.16-21.41-2.65-32.14-3.77-15.92-1.67-31.79-3.75-47.69-5.55-2.34-.26-4.05-1.31-5.97-3.19.34-.31.71-.24,1.06-.2,6.95.74,13.9,1.45,20.84,2.24,17.75,2.03,35.49,4.16,53.24,6.13,4.6.51,9.16.84,12.94,4.47-.82-.03-1.55-.05-2.27-.12ZM1358.41,776.76c5.86-.72,11.72.08,17.58.51,18.54,1.36,36.93,3.93,55.32,6.56,1.76.25,3.47.7,5.03,2.3-26.44-3.18-52.19-6.28-77.93-9.38ZM1432.57,834.81c.06,0,.12,0,.17,0,9.14.99,18.32,1.49,27.48,2.2l56.29,4.52c3.28.24,5.25,2.19,7.45,3.92-8.94-.39-17.8-.8-26.61-1.67-18.57-1.83-37.19-2.95-55.77-4.46-3.82-.31-6.47-2.15-9.01-4.52ZM1543.66,869.6c-.29,1.61-1.6,2.09-4.44,2.02-.35,0-.71,0-.7,0-6.45-.37-12.54-.71-18.63-1.06-15.71-.9-31.41-2.02-47.13-2.55-4.36-.15-6.58-2.17-8.58-5.32-.32-.5-.48-.91-.49-1.23.24-.43.97-.22,1.42-.2,4.16.16,8.31.38,12.46.6,5.92.31,11.84.63,17.76.96,15.28.87,30.56,1.77,45.85,2.6,1.88.1,2.53.95,2.37,2.67-.06.61-.02,1.12.12,1.52ZM1542.48,905.78c-.54,1.58-2.34.61-3.48.84-.81-.05-1.51-.08-2.22-.13-18.7-1.2-37.4-2.44-56.11-3.58-5.73-.35-5.68-.22-4.69-5.77.28-1.59.9-1.99,2.46-1.9,12.44.72,24.89,1.33,37.34,2.03,8.3.46,16.59,1.01,24.88,1.52.7.04,1.64-.03,1.85.74.56,2.07.65,4.28-.03,6.26ZM1542.07,924.17c-.44,1.86-2.42.74-3.54,1.01-14.46-1.05-28.75-2.08-43.07-2.77-8.13-.39-16.25-.97-24.36-1.66-4.21-.36-4.8-.23-2.07-3.96.57-.78,1.08-1.63,1.46-2.52.6-1.41,1.62-1.6,3.01-1.51,10.5.69,21.01,1.32,31.52,1.98,11.57.73,23.13,1.48,34.7,2.24.78.05,1.84-.07,2.18.7.92,2.1.67,4.41.17,6.49ZM1537.55,888.57c-.09,0-.18,0-.27,0v-.14c-1.24,0-2.48.07-3.72-.01-17.47-1.18-34.95-2.39-52.45-3.07-5.09-.2-5.09-.15-6.4-4.91-.16-.6-.32-1.21-.59-1.76-.86-1.76-.15-2.15,1.54-2.01,3.97.34,7.94.6,11.91.86,14.21.94,28.42,1.87,42.63,2.8,3.62.24,7.23.49,10.85.72,1.52.1,2.1.73,1.98,2.38-.38,5.08.9,5.43-5.5,5.13ZM1541.02,858.36c-1.93-.09-3.86-.13-5.79-.26-3.7-.26-7.4-.6-11.1-.85-8.73-.61-17.46-1.15-26.19-1.78-13.31-.95-26.62-2.04-39.94-2.87-2.83-.18-5.22-.69-7.01-2.96-.45-.57-1.63-.8-1.48-1.63,1.14-.01,1.95-.04,2.75.01,11.21.73,22.42,1.46,33.62,2.21,15.18,1.01,30.34,2.22,45.53,2.93,4.29.2,7.09,2.06,9.72,4.86-.04.12-.08.23-.12.35ZM1440.9,905.71c-.07-8.01,1.27-15.81,3.17-23.57,1.24-5.1,4.3-8.4,8.76-10.65.46-.23.88-.43,1.26-.58.53,0,1.05,0,1.58,0,.44,0,.88,0,1.32,0,.6.42,1.15,1.17,1.82,2.31,4.74,8.15,7.27,16.88,6.35,26.36-.6,6.16-1.42,12.34-5.69,17.31-2.77,3.21-5.57,6.39-8.93,9.05-2.85,2.26-3.5,2.14-5.4-1.08-3.49-5.94-4.38-12.43-4.24-19.16ZM1453.5,934.05c2.1-1.94,4.44-2.6,7.27-2.39,5.9.45,11.82.79,17.74,1,20.23.74,40.43,2.15,60.65,3.26.94.05,2.08-.2,2.52.98.45,1.22-.19,2.16-.98,3.09-2.15,2.54-4.98,2.24-7.83,2.11-14.66-.69-29.32-1.36-43.98-2.02-12.45-.57-24.91-1.11-37.36-1.69-.85-.04-1.78.06-2.61-.89,1.65-1.22,3.24-2.21,4.59-3.45ZM1539.85,751.18c-2.03.07-3.01-.57-3.5-2.22-.02-.11-.04-.21-.06-.32-1.71-9.64-3.53-19.26-5.34-28.87-.2-1.06-.39-2.12-.59-3.18-.02-.09-.03-.17-.05-.25-2.99-15.91-5.96-31.83-9.03-47.73-.42-2.14.04-2.96,2.23-3.42,12.13-2.51,24.24-5.14,36.34-7.82,1.89-.42,2.77,0,3.2,1.9,4.27,18.89,8.61,37.76,12.89,56.65.11.51.23,1.01.34,1.52.22,1.18.45,2.35.71,3.52,2.14,9.39,4.29,18.77,6.44,28.16,1.82,8.08,3.65,16.16,5.48,24.24,1.53,6.75,3.11,13.49,4.7,20.23.14.62.28,1.23.42,1.85.04.17.09.35.14.53.06.23.11.47.17.71.09.58.02,1.11-.64,1.38-1.6.64-3.38.42-4.79-.66-.82-.63-1.42-1.57-2.02-2.44-9.44-13.68-18.9-27.35-28.25-41.09-1.35-1.98-2.83-2.84-5.24-2.76-4.51.16-9.04-.07-13.55.09ZM1274.99,845.86c.83-1.81,1.69-3.61,2.54-5.41-.85,1.8-1.71,3.6-2.54,5.41h0ZM1262.34,875.35c-1.35,3.41-2.66,6.84-3.94,10.28-1.53,4.08-3.02,8.17-4.45,12.29-.13.38-.25.77-.37,1.15-.62,1.92-1.16,3.83-1.56,5.74-.16.76-.31,1.53-.43,2.29-.23,1.42-.39,2.84-.49,4.25-.53-3.12-.82-6.46-.82-9.92v-.19c.05-.6.06-1.23.04-1.9-.38-9.22,4.52-18.23,4.52-18.23-4.51,2.62-7.8,12.19-9.49,18.64l-7.32.62s-2.8-19.09,7.53-28.89l18.97-1.51c-.73,1.79-1.46,3.59-2.17,5.39ZM1846.87,899.19c.09.51-.37.75-.7,1.03-1.08.91-2.19,1.8-3.24,2.74-.3.27-.67.75-.62,1.07.09.64.76.63,1.29.64,4.41.1,8.86.61,12.83-2.13,1.45-1,3.09-1.72,4.67-2.51,3.48-1.73,6.89-3.8,11.05-2.61.82.24,1.97.44,2.16,1.33.22,1.07-1.01,1.28-1.71,1.72-10.56,6.64-21.33,12.94-32.19,19.1-18.1,10.25-36.8,19.29-55.8,27.72-5.6.78-11.27,1.59-16.92,2.43-49.05-.06-98.09-.04-147.14-.04h-5.5c20.83-11.03,37.53-26.65,53.11-43.93-1.25-.72-1.8-.14-2.37.21-18.12,11.16-36.96,20.86-56.78,28.69-16.19,6.4-32.77,11.31-49.85,14.65-1.67.33-2.35-.16-2.3-1.82.02-.8-.03-1.59-.03-2.39.03-25.28-.34-50.57.02-75.85.06-.28.09-.6.09-.96.09-5.57.36-11.14.43-16.71.2-15.39,1.39-30.74,1.75-46.13.07-2.93,1.76-3.77,4.16-4.13,2.55-.38,4.71.41,6.59,2.11,4.45,4.04,8.91,8.08,13.36,12.13,8.75,7.99,17.49,15.99,26.24,23.98,7.71,7.04,15.43,14.07,23.13,21.12,3,2.75,5.99,5.51,8.97,8.28.8.75,1.66,1.31,2.6,1.65,8.86,8.09,17.72,16.19,26.49,24.38,2.68,2.5,5.1,3.41,8.7,1.98,3.28-1.3,6.84-2.33,10.52-1.12-.09,1.12-1.91,1.26-1.36,2.4.5,1.01,1.75.55,2.67.68.96.14,1.94.22,2.91.21,6.14-.09,12.4,1.31,18.31-1.58,1.29-.63,2.79-.38,4.2-.35.54.01,1.16.07.77.89-.99,2.05.64,1.72,1.67,1.77,3.71.2,7.44.19,11.13.53,3.61.33,6.88-.41,9.83-2.4,2.5-1.69,5.15-1.22,7.88-1.04-.15,1.09-.96,1.42-1.46,2-.38.44-1.2.69-.88,1.45.29.69,1.06.51,1.65.55,2.47.16,4.95.25,7.42.45,4.22.35,8.29.19,11.81-2.66,1.37-1.11,3.12-1.14,4.83-1.05.69.04,1.64-.29,1.99.34.51.91-.55,1.32-1.04,1.88-.38.45-1.09.78-.71,1.53.28.56.89.5,1.41.54,6.15.36,12.35,1.45,18.03-2.33,2-1.33,4.43-1.17,7.14-.56-.88.67-1.44,1.08-1.98,1.52-.59.47-1.81.58-1.62,1.5.22,1.07,1.43.82,2.26.86,7.34.4,14.66.83,21.28-3.5,1.89-1.23,4.17-.89,6.79-.41-2.07,1.44-3.76,2.62-5.46,3.8.32.39.41.62.53.63,6.93.78,13.95,2.14,19.89-3.25.58-.52,1.35-.84,2.03-1.26,1.21-.74,2.54-.68,3.87-.58.52.04,1.12.13,1.23.77ZM1748.07,887.94c.27,2.12-.14,2.83-2.4,2.67-11.03-.74-22.06-1.35-33.1-2.01-12.18-.72-24.36-1.46-36.55-2.16-1.24-.07-2.17-.56-3.04-1.39-10.05-9.57-20.12-19.12-30.17-28.68-6.79-6.45-13.63-12.86-20.33-19.41-1.86-1.82-4.06-3.37-5.77-5.91,3.43-.22,6.29.4,9.13.64,15.08,1.28,30.14,2.71,45.2,4.1,16.3,1.5,32.6,3.03,48.9,4.53,8.81.81,17.62,1.6,26.44,2.35,2.38.2,3.38.38,3.62,1.37.02.34-.02.74-.12,1.2-3.04,14.12-3.63,28.36-1.8,42.68ZM1742.42,801.86c-.19.11-.38.23-.57.35.19-.12.38-.24.57-.35ZM1637.37,804.4c-.07.15-.15.3-.22.44-3.18-.54-6.37-1.08-9.55-1.64-.63-.11-1.21-.45-1.38-1.1-.4-1.48-.86-2.94-1.27-4.49-.27-1.41-.44-2.88-.4-4.45,4.28,3.75,8.55,7.49,12.83,11.24ZM1631.63,812.45c16.47,1.56,32.92,3.35,49.39,5.01,15.32,1.54,30.64,3.02,45.96,4.54,5.37.53,10.74,1.07,16.11,1.69,1.43.17,2.44-.03,3.45-1.26,2.23-2.73,4.51-3.17,7.83-1.87,2.77,1.09,5.1,2.82,7.24,4.85,6.74,6.4,14.15,12.01,21.25,17.98,12.11,10.19,24.63,19.88,36.84,29.96,3.1,2.56,6.03,5.35,9.14,7.89,5.15,4.19,10.31,8.38,15.76,12.82l-2.05.8c-12.86-10.53-47.98-38.87-60.78-49.48-6.25-5.18-13.13-10.17-18.94-15.98-3.21-3.21-4.66-4.85-8.39-5.39-.51-.07-1.11-.4-1.47.14-.36.53-.05.94.28,1.3.08.31.29.67.5.94,1.12,1.51,2.04,3.1,2.6,4.9.16.5.28.92.35,1.26-.14.86-1.07,1-3.09.77-10.99-1.27-21.96-2.65-32.95-3.91-10.63-1.22-21.27-2.39-31.92-3.5-13.46-1.4-26.93-2.77-40.4-4.04-12.77-1.2-25.54-2.8-38.34-3.15-7.79-.21-12.34-5.03-17.98-8.85,4.38.18,8.24.29,12.1.55,9.18.62,18.37,1.17,27.53,2.04ZM1567.34,621.32c-3.06-.84-6.13-1.68-9.22-2.41-3.94-.93-4.05-1.08-3.97-5.11.03-1.7.4-2.38,2.31-1.94,3.69.85,7.43,1.54,11.18,2.12,2.64.41,4.12,1.51,3.46,3.98,0,4.4.01,4.38-3.77,3.35ZM1518.33,601.37q4.46.99,4.47,5.46c0,.53,0,1.06,0,1.59-.03,3.19-.22,3.36-3.4,2.5-2.99-.8-5.94-1.74-8.94-2.54-5.8-1.54-5.8-1.52-5.55-7.54,0-.09,0-.18,0-.27-.11-1.74.7-2.13,2.3-1.74,3.7.89,7.41,1.7,11.12,2.53ZM1492.8,587.06s-.05.07-.07.1c.03-.03.05-.07.07-.1ZM1500.8,613.06c1.52-.57,2.98-.83,4.65-.42,20.53,5.07,41.08,10.09,61.64,15.06,1.88.46,2.81,1.37,3.26,3.27,3,12.74,6.14,25.45,9.16,38.18,4.42,18.67,8.76,37.37,13.18,56.04,5.52,23.32,11.09,46.63,16.62,69.94.35,1.46.55,2.95.82,4.43,0,0,0,.02,0,.03-.05.38-.29.68-.94.81-1.09.21-2.19.16-2.67-1.11-.28-.74-.47-1.52-.65-2.3-5.75-24.63-11.49-49.26-17.24-73.89-.42-1.8-.89-3.58-1.34-5.37-2.05-8.73-4.1-17.45-6.16-26.17-4.2-17.82-8.43-35.63-12.62-53.45-.45-1.89-.95-3.36-3.34-3.77-18.39-3.21-36.76-6.57-55.14-9.87-2.54-.46-2.93-.09-2.52,2.36,2.14,12.82,4.28,25.64,6.43,38.45,5.02,29.9,10.05,59.81,15.08,89.71.45,3.06.85,6.14,1.2,9.27-2.43-2.59-5.74-4.47-6.45-8.35-.9-4.89-1.8-9.78-2.69-14.67-.08-.45-.16-.91-.24-1.36-1.43-8.05-2.86-16.09-4.29-24.14,0-.01,0-.03,0-.04,0-.01,0-.02,0-.03-3.12-17.53-6.23-35.05-9.35-52.58-2.18-12.27-4.42-24.54-6.54-36.82-.68-3.95-.76-4.06-4.41-2.43-18.1,8.08-36.21,16.13-54.31,24.23-6.4,2.86-5.99,1.33-5.33,8.53.06.7.03,1.42.06,2.12.32,7.86.72,15.72.94,23.58.14,5.18.03,10.37.03,15.85-2.32-1.64-4.62-3.27-6.93-4.89-.96-.68-1.27-1.63-1.27-2.76,0-14.86.01-29.72,0-44.59,0-1.32.55-2.12,1.75-2.67,10.71-4.87,21.35-9.9,32.13-14.63,12.39-5.44,24.83-10.79,37.51-15.57ZM1513.77,748.28c-.64.49-1.33-.17-1.94-.48-4.76-2.36-9.49-4.79-14.27-7.1-1.54-.75-2.15-1.87-2.4-3.5-.02-.1-.03-.2-.05-.31-.56-4.12-1.13-8.25-1.78-12.36-.31-2.05-.65-4.1-1.03-6.14-1.56-8.7-3.57-17.29-6.61-25.67-2.37-6.52-5.19-12.84-12.07-17.18,8.1-1.86,15.6-3.5,23.05-5.34,2.12-.52,2.83.11,3.18,2.1,1.2,6.78,2.52,13.55,3.8,20.32,2.58,13.56,5.16,27.13,7.75,40.69.8,4.32,1.6,8.64,2.39,12.96.12.67.62,1.5-.03,1.99ZM1454.06,707.97c.13,1.12-.06,1.93-1.37,1-2.16-1.53-4.27-3.13-6.4-4.7-.81-.6-.92-1.45-.87-2.38.53-4.88,1.99-9.3,6.1-12.43.48-.37.96-1.04,1.58-.81.84.31.54,1.2.54,1.87.02,5.82-.23,11.64.43,17.45ZM1431.23,627.67c4.27-1.94,8.54-3.87,12.81-5.8-4.27,1.93-8.54,3.86-12.81,5.8-1.25.57-2.49,1.14-3.74,1.72,1.24-.58,2.49-1.15,3.74-1.72ZM1388.5,651.16c7.74,1.81,15.48,3.65,23.22,5.46,1.38.32,2.35.98,2,2.54-.43,1.9-1.91,1.2-3.01.96l-13.96-3.16c-2.93-.66-3.03-.55-2.44,2.54-2.57-2.79-4.98-5.4-7.37-8,.53-.65,1.09-.45,1.56-.34ZM1383.92,678.54c1.31-2.87,1.73-2.92,4.25-1.07,11.04,8.13,22.06,16.29,33.12,24.39,19.41,14.22,38.85,28.41,58.26,42.63,20.77,15.21,41.5,30.47,62.3,45.65.19.14.36.27.52.41,1.08,1.74,1.55,3.81,1.68,6.13-.03,1.72-.06,3.45-.09,5.17-.54,12.64-.44,25.3-.62,37.96,0,.6-.09,1.2-.13,1.73-.65.36-.98-.03-1.26-.33-8.07-8.82-18.03-15.35-27.45-22.54-25.39-19.38-50.81-38.72-76.23-58.07-3.38-2.57-6.78-5.12-10.19-7.65-.53-.39-1.1-1.15-1.83-.54-.39.32-.29.74-.15,1.16-.17.71.51,1.65.66,2.44.15.8.49,1.58.69,2.37.08,1.25-.4,2.38-1.36,3.44-.47.53-.98,1.07-1.26,1.7-1.69,3.83-4.8,4.42-8.54,4.09-1.33-.12-2.05-.49-2.33-1.38-.03-.25-.04-.53-.04-.83.09-4.78-.05-9.56.06-14.33.02-.74-.07-1.41-.25-2.02-.27-1.32-.95-2.41-2.1-3.42-7.31-6.42-14.37-13.13-21.88-19.3-3.53-2.9-4.54-6.49-5.22-10.54-.09-.53-.14-1.1-.31-1.6-1.12-6.11-2.18-12.23-2.48-18.47-.28-5.86-.33-11.7,2.18-17.19ZM1320.2,801.75c2.54-4.39,4.33-8.99,4.59-14.22.1-1.91.25-3.82.44-5.73.13-1.15.25-2.3.38-3.45.09-.83.19-1.66.28-2.49.21-1.74.43-3.48.63-5.21,1.84-15.63,3.78-31.24,5.6-46.87,1.87-16.07,3.65-32.15,5.48-48.22.17-1.51.43-2.93,2.08-3.71,7.52-3.56,15.01-7.17,22.49-10.81,1.46-.71,2.19-.55,2.62,1.16,1.04,4.21,2.23,8.38,3.35,12.56,3.9,14.7,7.71,29.43,11.68,44.1,1.45,5.81,2.87,11.64,4.57,17.38,1.07,4.65,1.92,9.33,2.37,14.08.02.86.01,1.72-.02,2.58-.14,4.42-.07,8.85-.03,13.27.01,1.65-.62,2.42-2.35,2.39-5.18-.1-6.93.31-7.48-.75-.09-.34-.13-.74-.12-1.22.09-4.16-.35-8.36.11-12.47.21-1.86.16-3.63-.1-5.32.02-5.15-3.35-8.83-5.57-13.02-.64-1.21-1.73-.5-2.59-.16-9.53,3.82-18.94,7.95-28.62,11.36-2.06.72-3.56,1.6-4.64,2.77-.89.63-1.41,1.47-1.59,2.7-.36,1.02-.58,2.19-.69,3.54-.93,11.09-2.61,22.12-3.8,33.19-.37,3.47-1.44,6.41-3.64,9.16-3.58,4.49-6.92,9.17-10.48,13.71,1.47-3.56,3.13-7,5.05-10.31ZM1314.5,879.99c.42-3.68.67-3.95,4.43-3.95,19.04,0,38.08,0,57.12,0,19.31,0,38.61.02,57.92-.02,1.91,0,2.97.17,2.49,2.6-2.04,10.18-3.16,20.42-2.11,30.83.35,3.47.06,3.64-3.39,3.64-37.46,0-74.92,0-112.39,0-3.46,0-3.65-.17-4.01-3.73-.99-9.78-1.18-19.57-.07-29.36ZM1409.48,926.84c-1.36,1.85-2.58,3.86-4.23,5.42-2.76,2.61-5.77,4.85-9.84,5.23-8.71.82-12.91-5.01-15.39-10.83-.63-1.49-.25-2.07,1.45-2.03,4.42.08,8.84.03,13.26.03,0-.02,0-.05,0-.07,4.51,0,9.01,0,13.52,0,.62,0,1.31-.15,1.72.4.57.76-.11,1.35-.5,1.87ZM1301.41,924.67c3.54.08,7.08.03,10.62.03v.02c3.72,0,7.43.02,11.15,0,1.54-.01,2.08.38,1.41,2.04-1.05,2.59-2.48,4.89-4.46,6.83-3.71,3.63-8.32,4.81-11.8,2.94-4.08-2.2-6.62-5.74-8.28-9.98-.55-1.4-.18-1.9,1.37-1.86ZM1304.58,944.07c55.23.43,110.49-1.55,165.69,1.9,14.74.92,29.53,1.19,44.29,1.79,3.41.14,6.81.41,10.46.63-2.01,1.25-4.02,1.3-6.04,1.3-72.08,0-144.16-.01-216.24-.01-3.36,0-6.72-.05-10.08.32-4.24.46-7.88-.9-10.54-4.35-1.84-2.39-3.36-4.97-4.39-7.83-2.75-7.65-3.12-15.53-2.32-23.54.81,3.93,1.8,7.77,3.26,11.48,2.22,5.63,5.69,10.3,10.47,14.08,4.6,3.65,9.78,4.18,15.44,4.23ZM1278.41,838.58c-.24.49-.46.99-.7,1.49-.92,1.93-1.83,3.85-2.72,5.79-13.15-3.07-29.94-3.75-31.69-3.85-2.62-.15-19.85-.4-31.66-4.61l3.95.08,65.33-4.12c-.84,1.74-1.68,3.47-2.52,5.21ZM1171.69,743.79l35.72,5.64v3.68l-35.72-5.65v-3.68ZM1171.69,751.49l35.72,5.64v3.68l-35.72-5.64v-3.68ZM1171.69,759.2l35.72,5.65v3.68l-35.72-5.64v-3.68ZM1171.69,766.9l35.72,5.64v3.68l-35.72-5.64v-3.68ZM1171.69,774.61l35.72,5.65v3.68l-35.72-5.64v-3.68ZM1256.47,807.2l-13.49-3.6,14.8-9.53,20.54,2.32,1.17,17.99-126.09-13.66,5.23-1.91,97.83,8.39ZM1147.28,629.2l8.14,104.63-16.29-4.73-4.29-104.63,12.43,4.73ZM1065.85,598.38l59.89,16.99,3.4,85.24-79.09-17.74,15.79-84.49ZM1129.63,712.74l.49,12.25-23.82,29.77-50.79-4.9-10.78-24.55,3.14-30.78,81.75,18.22ZM987.23,607.49l52.19-13.83s7.71,1.23,6.3,8.93c-1.4,7.71-17.34,115.05-17.34,115.05,0,0-.31,1.2-.47,3.17l-70.16,10.71c.03-.15,9.32-46.52,11.11-55.91.75-3.96-10.53,32.41-10.29,31.32.81-3.69,17.26-92.01,17.26-92.01,0,0,.44-4.12,11.39-7.43ZM915.63,478.09c5.25,5.02,9.69,10.06,12.46,14.73,12.61,21.37,46.4,103.5,46.4,103.5,0,0-6.66,3.32-8.06,8.4-1.4,5.08-6.13,23.99-6.13,23.99l-16.29-28.19-2.06-12.59-5.26-5.78-21.27-81.96s-.36-6.04.87-6.21c1.23-.17,1.75-4.73,1.75-7.79,0-1.96-1.4-5.69-2.41-8.11ZM647.03,284.7l2.8,8.93,70.05,54.64-60.82-32.63-8.71-12.02-56.39-27.14-11.38-45.18,64.44,53.41ZM488.9,469.99l5.96-7.88,4.2-86.51,4.2,148.15-18.56,16.11,4.2-69.88ZM465.21,579.11s-5.95-1.05-7.88-5.25c-1.93-4.2-1.05-9.98-1.05-9.98l25.4-11.56s-.18,7.18,2.97,11.03c3.15,3.85,5.78,6.65,5.78,6.65l-25.22,9.11ZM499.24,682.42s-4.29-5.43-6.04-11.91c-1.75-6.48,3.24-14.01,3.24-14.01l9.11-2.1s-3.24,9.02-2.01,14.27,5.69,10.42,5.69,10.42l-9.98,3.33ZM502.85,644.43l-20.66-58.67,7.35-4.12,21.19,57-7.88,5.78ZM567.58,636.21s-13.01,18.42-15.04,30.93c-2.03,12.51-3.21,38.7-1.86,44.96,1.35,6.25,3.21,17.58-4.9,5.58-8.11-12-9.46-23.83-13.69-29.75-4.23-5.92-16.23-15.38-13.02-31.77,3.21-16.4,16.56-19.27,17.07-23.66.51-4.39-4.23-13.35-4.23-20.96s5.07-12.34,9.13-14.71c4.05-2.36,14.7-1.35,18.76,9.47,4.06,10.82,7.77,29.92,7.77,29.92ZM557.96,583.16s-4.38-.53-8.58,0c-4.2.53-14.01,2.98-14.01,2.98l-1.94-42.33,25.38-24.51c2.06-.22,4.01-.77,5.83-1.59l-6.67,65.46ZM556.66,511.34c-.39,0-.79-.02-1.17-.06l-41.07,39.67c.09.58.14,1.18.14,1.79,0,6.25-5.07,11.32-11.31,11.32s-11.32-5.07-11.32-11.32,5.07-11.31,11.32-11.31c.72,0,1.42.07,2.1.19l40.2-39.47c-.13-.69-.2-1.4-.2-2.12,0-6.25,5.07-11.31,11.32-11.31s11.32,5.06,11.32,11.31-5.07,11.31-11.32,11.31ZM873.37,504.99c-3.83-3.03-7.8-5.86-11.84-8.32-26.97-16.46-213.83-146.41-213.83-146.41l-18.04-2.28-44.18-34.98-17.45,171.32c-3.2-2.32-7.12-3.69-11.37-3.69-10.34,0-18.79,8.09-19.35,18.29l-5.68,5.57-14.29-311.69,10.51-9.8,46.58,53.59,11.69,44.54,55.83,26.42,9.81,12.26,216.1,122.76s26.68,16.19,45.39,33.29l-12.89.71c-3.86,1.4-3.77,5.08-3.77,5.08,0,0-1.23,7.71.88,12.26,2.1,4.55,4.63,7.47,4.63,7.47l11.56,46.64-1.33-2.31c-10-13.67-44.57-55.89-54.2-64.87-7.88-7.35,4.82,7.62,15.25,24.15ZM919.79,811.4l-31.7,3.5,8.41-25.75,25.57-3.32-2.28,25.57ZM941.12,778.78l-42.28-156.67-5.08-7.53-10.49-34.06c5.55,8.52,9.75,15.12,9.75,15.12l53.41,104.9s-1.4,18.22-3.85,29.25c-2.45,11.03,1.4,21.72,1.4,21.72l11.03,27.85-13.9-.56ZM956.75,744.39s-.31-1.35-.47-3.53l72.63-10.29c.45,1.55,1.08,3.15,1.93,4.76,4.73,8.93,11.74,34.5,11.74,34.5,0,0,1.93,7.35-3.85,9.81-5.78,2.45-54.65,4.86-54.65,4.86,0,0-9.81,2.45-13.48-6.48-3.68-8.93-13.83-33.62-13.83-33.62ZM973.03,814.03l83.01-16.81,169.17,26.27-167.24-17.51-84.93,8.06ZM936.34,856.33h68.99c-1.65,2.14-3.07,4.51-4.1,7.1h-71.3c1.76-2.59,4-4.97,6.42-7.1ZM926.24,870.85h72.98c-.65,3.04-1.2,6.08-1.67,9.04h-74.29c.84-3.04,1.83-6.09,2.97-9.04ZM776.68,850.71h53.42c-1.7,1.18-3.52,2.58-5.3,4.21h-55.11c2.59-1.76,5.05-3.17,6.99-4.21ZM762.78,860.39h57.05c-1.47,1.99-2.78,4.19-3.75,6.6h-58.97c1.57-2.41,3.54-4.62,5.66-6.6ZM753.79,873.88h60.36c-.64,2.82-1.17,5.64-1.64,8.39h-61.43c.75-2.82,1.66-5.67,2.71-8.39ZM748.96,891.86h62.25c-.34,3.15-.57,6-.72,8.39h-62.7c.25-2.49.63-5.34,1.17-8.39ZM747.96,913.16h63.58c.64,2.4,1.49,5.31,2.46,8.39h-64.34c-.56-2.45-1.23-5.53-1.7-8.39ZM788.96,940.43h-31.93c-1.27-2.74-2.63-5.81-3.75-8.39h64.28c1.14,3.05,2.28,5.96,3.35,8.39h-31.95ZM913.09,866.85s-1.93,11.03-2.98,16.63c-1.05,5.61-1.75,21.89-1.75,21.89l-18.78,2.68-12.04,15.18-4.38-10.16-1.75,15.76-46.58.35-.7-30.12-.18-24.52,37.65-1.58.36,20.82,4.91-25.32,11.54-9.86,40.28-3.15-5.6,11.39ZM920.91,890.22h75.27c-.37,3.39-.63,6.47-.8,9.04h-75.81c.3-2.67.74-5.75,1.34-9.04ZM919.73,913.14h76.85c.74,2.59,1.71,5.72,2.81,9.04h-77.77c-.63-2.63-1.37-5.95-1.9-9.04ZM929.77,942.51c-1.38-2.95-2.87-6.25-4.1-9.04h77.7c1.23,3.3,2.48,6.42,3.63,9.04h-77.23ZM944.3,850.44c2.98-1.89,5.83-3.41,8.09-4.52h64.59c-1.95,1.26-4.02,2.77-6.04,4.52h-66.64ZM1051.51,910.18l-1.95,22.73-35,3.01-1.05-58.84.52-6.13,29.95-.35,2.1,22.07,2.27-15.06,151.75,2.33-47.28,4.72,75.21-1.61v37.83l-172.67,1.23-3.85-11.91Z"/>
      <path class="cls-3" d="M1519.99,607.61c-.1-1.22.45-3.04-1.71-2.8-2.33.26-4.69.58-7.46,1.69,2.58,1.51,4.95,1.87,7.19,2.59,1.31.42,2.11.03,1.98-1.48Z"/>
    </g>
    <g>
      <path class="cls-3" d="M932.18,1011.94l1.45-8.51h-8.63s-47.63,0-47.63,0h-17.87s-18.95,0-18.95,0l14.07,12.69,3.78,3.41h-11.16s18.5,16.68,18.5,16.68l-5.15,31.1c-2.24,11.94-4.37,24.21-6.38,36.66l-71.54-84.44h-7.72s-11.46-13.52-11.46-13.52l-2.18-2.58h-3.38s-37.83,0-37.83,0h-17.84s-18.95,0-18.95,0l14.08,12.69,3.78,3.41h-11.16s18.23,16.44,18.23,16.44l-1.79,10.11c-2.58-10.81-8.47-16.79-13.61-20.04-3.28-2.09-7.22-3.74-11.85-4.99-2.12-5.07-5.41-9.05-9.87-11.87-7.48-4.76-19.07-7.07-35.44-7.07v3.64h0v-3.64s-113.33,0-113.33,0h-2.43c-16.12,0-28.22,2.22-36.97,6.77-9.28,4.82-16.19,13.57-20.53,26.02-1.64,4.66-3.11,10.78-4.5,18.7-4.23,24.39-9.23,53.19-14.34,82l-1.52,8.56h8.69s9.29,0,9.29,0c-.67,3.82-1.35,7.66-2.03,11.49l-2.51,14.17h3.34s-22.17,16.27-22.17,16.27l-17.93,13.16h22.24s17.28,0,17.28,0l-34.97,25.67,202.22-.02c20.82,0,35.49-3.92,44.85-11.98,4.24-3.67,7.85-8.64,10.87-14.97h6.99s9.3,0,9.3,0l-4.55,25.67h73.26s18.83-99.87,18.83-99.87c4.35,5.14,9.53,11.24,15.59,18.37l68.79,81.48h54.31s34.7-204.11,34.7-204.11h-27.54s1.29-7.59,1.29-7.59ZM538.57,1122.52c2.3-13.15,4.6-26.29,6.88-39.44l.02-.15h66.56s-10.49,59.41-10.49,59.41h-66.44c1.15-6.6,2.31-13.22,3.46-19.82Z"/>
      <path class="cls-3" d="M2083.03,1154.35l8.13-11.49h-14.08s-25.49,0-25.49,0l38.65-54.64h-39.77s3.26-4.61,3.26-4.61l.49-.69h48s44.82-63.39,44.82-63.39h-39.77s3.26-4.61,3.26-4.61l8.12-11.49h-14.07s-177.14.02-177.14.02h-17.87s-18.97,0-18.97,0l14.1,12.7,3.78,3.4h-11.2s18.29,16.47,18.29,16.47l-1.95,11c-2.7-10.94-9.08-16.9-14.68-20.1-3.09-1.77-6.63-3.2-10.62-4.33-2.24-5.38-5.87-9.53-10.89-12.4-7.97-4.55-19.36-6.76-34.83-6.76h-92.7s-50.25.01-50.25.01h-17.84s-18.93,0-18.93,0l14.05,12.69,3.78,3.41h-11.12s18.21,16.44,18.21,16.44l-4.61,26.1-12.86,72.91-.39,2.24-38.47-117.71h-17.35s-3.62-11.08-3.62-11.08l-1.64-5.02h-5.28s-52.45,0-52.45,0h-17.84s-18.92,0-18.92,0l14.04,12.69,3.78,3.41h-11.1s9.43,8.52,9.43,8.52l-97.26,142.83-7.6-11.99c7.08-1.79,12.98-4.54,17.81-8.27,9.24-7.09,15.32-19.41,18.59-37.64l7.32-40.57c1.08-6.08,1.6-11.17,1.6-15.54,0-17.79-8.62-26.35-15.83-30.39-3-1.68-6.48-3.04-10.49-4.1-2.65-6.57-7.06-10.41-11-12.61-7.61-4.27-19.43-6.35-36.12-6.35h-87.58s-49.33.01-49.33.01h-17.87s-5.51,0-5.51,0l.61-.67h-16.47s-150.47.01-150.47.01c-19.8,0-33.59,3.52-42.16,10.76-8.58,7.2-14.46,20.52-17.96,40.72l-16.04,90.35c-1.34,7.41-2,13.32-2,18.05,0,13.65,4.45,23.34,13.24,28.8.58.36,1.18.69,1.81,1.02,2.14,13.27,8.95,20.28,14.84,23.94,8.57,5.29,21.26,7.86,38.8,7.86h108.66c20.78-.01,35.46-3.91,44.91-11.94,4.15-3.54,7.71-8.32,10.71-14.37h2.92s9.3,0,9.3,0l-4.56,25.67h73.84s11.06-62.25,11.06-62.25h26.65s19.63,33.01,19.63,33.01l2.12,3.56h1.16l15.26,25.67h41.82s-.01.01-.01.01h87s19.82-30.48,19.82-30.48h35.03s-5.32,4.8-5.32,4.8h18.93s16.19,0,16.19,0l-28.41,25.67h82s-.03.01-.03.01l183.38-.02c20.84,0,35.4-3.91,44.49-11.92,3.85-3.38,7.19-7.94,10.05-13.73h7.53s9.29,0,9.29,0l-4.55,25.67h173.44s45.78-64.7,45.78-64.7h-39.78s3.26-4.61,3.26-4.61ZM1220.56,1090.93l1.34-7.54,1.52-8.56h-6.5s30.95-34.03,30.95-34.03l-8.91,50.13h-18.41ZM1772,1084.21h47.14s-10.12,56.86-10.12,56.86h-46.99s9.96-56.86,9.96-56.86ZM1237.88,1016.15l3.04,2.74h-17.72s3.56-3.91,3.56-3.91l4.42-4.86,6.69,6.04ZM1107.41,1126.58h13.08s13.37,0,13.37,0l-10.17,16.43h-35.83s10.79-60.71,10.79-60.71h36.18s-20.53,33.17-20.53,33.17l-6.88,11.12ZM1583.66,1129.89l.81,2.73h-2.29s1.48-2.73,1.48-2.73ZM1677.51,1143.56h9.29s-4.53,25.67-4.53,25.67h2.62s-3.63,2.66-3.63,2.66l-9.26-28.32h5.51Z"/>
    </g>
    <g>
      <polygon class="cls-1" points="1662.39 1191.34 1609.74 1191.35 1580.37 1191.35 1603.32 1170.62 1600.29 1160.87 1570.99 1062.5 1570.52 1062.5 1528.96 1124.46 1578.67 1124.46 1558.96 1160.88 1506.04 1160.88 1486.22 1191.36 1428.58 1191.36 1544.34 1021.36 1533.3 1011.38 1551.14 1011.38 1603.58 1011.37 1662.39 1191.34 1662.39 1191.34"/>
      <path class="cls-1" d="M606.36,1192.65h-165.39s57.73-42.36,57.73-42.36c36.32,0,72.63,0,108.95,0l16.59-93.99c.28-1.72.4-2.67.4-2.83,0-1.89-1.42-2.83-4.27-2.83-33.09,0-66.21,0-99.32,0h-.14s-.12,0-.12,0h-17.61s11.24,10.15,11.24,10.15c-4.44,25.59-8.94,51.1-13.4,76.78h-.07s-50.2,0-50.2,0c4.86-27.43,9.6-54.66,14.34-82.02,1.3-7.41,2.69-13.26,4.2-17.56,3.73-10.69,9.42-18.01,17.02-21.95,7.62-3.97,18.81-5.95,33.61-5.95h2.43s113.32,0,113.32,0c14.82,0,25.33,1.98,31.56,5.94,6.23,3.94,9.35,11.26,9.35,21.95.02,4.3-.66,10.15-1.93,17.56l-16.68,94.74c-3.16,16.55-8.05,27.64-14.63,33.33-6.99,6.02-19.33,9.04-36.96,9.04h0Z"/>
      <path class="cls-1" d="M1430.09,1016.8c-6.47-3.63-17.28-5.43-32.57-5.42h-87.57s-49.33.01-49.33.01h-17.87s15.39,13.88,15.39,13.88l-29.51,166.1h49.33s8.59-48.34,8.59-48.34l2.48-13.9h44.78s37.01,62.23,37.01,62.23h54.8s-39.47-62.24-39.47-62.24c13.88-.33,24.14-3.09,30.82-8.26,6.7-5.15,11.37-15.22,14.06-30.21l7.31-40.53c.94-5.34,1.42-9.82,1.42-13.43,0-9.63-3.23-16.26-9.68-19.87ZM1388.53,1055.28l-5.45,29.69c-.31,1.89-.85,3.14-1.65,3.73-.78.61-2.03.92-3.78.92h-81.59s4.5-25.37,4.5-25.37l-15.39-13.88h17.84s19.64,0,19.64,0h62.08c2.69,0,4.04.94,4.04,2.83,0,.52-.1,1.2-.24,2.08Z"/>
      <path class="cls-1" d="M894.41,1191.35h-38.52s-65.17-77.2-65.17-77.2c-17.07-20.08-27.71-32.66-31.96-37.78l-2.59,13.76-19.09,101.23h-48.86s29.44-166.09,29.44-166.09l-15.39-13.88h17.84s37.83,0,37.83,0l69.97,82.58c16.17,18.72,25.89,30.26,29.25,34.55l.78-.14c2.88-19.71,6.13-39.42,9.84-59.13l7.27-43.85-.12-.12-15.41-13.9h17.87s47.63,0,47.63,0l-30.6,179.97h0Z"/>
      <path class="cls-1" d="M1150.96,1192h-108.64c-15.11.01-25.94-2.02-32.48-6.05-6.54-4.06-9.8-11.59-9.8-22.61,0-4.3.64-9.89,1.89-16.78l16.04-90.38c3.16-18.25,8.3-30.38,15.48-36.4,7.15-6.04,19.64-9.04,37.46-9.04h150.47s-35.71,39.24-35.71,39.24h-111.19s-.5,0-.5,0h-17.84s11.42,10.32,11.42,10.32l-15.24,85.73c-.21.87-.33,1.46-.33,1.82,0,2.05,1.42,3.09,4.25,3.09h92.36c2.05,0,3.47-.32,4.25-.9.8-.62,1.35-1.87,1.65-3.75l4.72-26.34h-38.73s23.01-37.17,23.01-37.17h71.23s-11.32,63.77-11.32,63.77c-3.16,18.24-8.28,30.38-15.36,36.42-7.08,6.02-19.45,9.04-37.08,9.04h0Z"/>
      <polygon class="cls-1" points="2048.38 1191.35 1895.58 1191.36 1925 1025.27 1909.58 1011.39 1927.45 1011.39 1927.45 1011.39 2104.59 1011.37 2076.84 1050.63 1970.2 1050.64 1952.35 1050.64 1967.75 1064.54 1965.03 1080.07 2047.78 1080.06 2021.3 1117.5 1958.4 1117.5 1940.54 1117.5 1955.95 1131.4 1952.5 1150.81 2077.08 1150.8 2048.38 1191.35 2048.38 1191.35"/>
      <path class="cls-1" d="M1814.36,1191.35h-146.48s57.82-42.34,57.82-42.34h24.57s60.02,0,60.02,0c1.89,0,3.23-.31,4.01-.9.8-.62,1.35-1.87,1.65-3.75l15.62-87.8c.12-.68.21-1.27.21-1.79,0-1.91-1.42-2.86-4.27-2.86h-64.46s-20.3,0-20.3,0h-17.87s15.39,13.93,15.39,13.93l-12.46,71.09h-50.32s12.86-72.9,12.86-72.9l6.84-38.73-15.39-13.9h17.84s50.25,0,50.25,0h92.69c14.04,0,24.45,1.93,31.23,5.79,6.77,3.87,10.08,11.19,9.92,22.04,0,5.15-.64,11-1.93,17.54l-15.81,89.1c-3.3,18.41-8.35,30.64-15.1,36.56-6.75,5.95-18.95,8.92-36.54,8.93h0Z"/>
    </g>
    <g>
      <path class="cls-3" d="M1562.43,1296.44h-10.77v19.91h10.77c8.08,0,12.16-3.75,12.16-9.96s-4.08-9.96-12.16-9.96Z"/>
      <path class="cls-3" d="M1280.51,1326.72c0,4.16,3.92,7.1,10.2,7.1,3.92,0,7.59-1.14,10.69-3.35l-13.79-12.89c-5.22,3.02-7.1,5.63-7.1,9.14Z"/>
      <path class="cls-3" d="M1290.71,1306.07c5.63-3.02,7.43-5.14,7.43-7.75,0-2.77-1.96-4.73-5.63-4.73-3.92,0-6.2,2.2-6.2,5.22,0,2.2.9,3.83,4.41,7.26Z"/>
      <path class="cls-3" d="M2010.92,1252.84H551.25c-8.99,0-16.29,7.29-16.29,16.29v88.92c0,8.99,7.29,16.29,16.29,16.29h1459.68c8.99,0,16.29-7.29,16.29-16.29v-88.92c0-8.99-7.29-16.29-16.29-16.29ZM917.81,1332.51c5.71,0,10.53-2.29,14.36-6.77l8.49,7.83c-5.39,6.61-13.63,10.2-23.58,10.2-17.71,0-30.93-12.32-30.93-29.54s13.22-29.54,31.01-29.54c9.87,0,18.12,3.59,23.5,10.12l-8.49,7.83c-3.83-4.41-8.65-6.69-14.36-6.69-10.69,0-18.28,7.51-18.28,18.28s7.59,18.28,18.28,18.28ZM985.62,1342.79h-13.22v-57.12h13.22v57.12ZM1051.87,1342.79h-13.06l-24.64-57.12h14.28l17.38,40.8,17.63-40.8h13.14l-24.73,57.12ZM1117.4,1342.79h-13.22v-57.12h13.22v57.12ZM1195.65,1342.79h-41.86v-57.12h13.22v46.35h28.64v10.77ZM1315.76,1343.77l-6.85-6.37c-5.22,4.08-11.75,6.37-19.1,6.37-12.57,0-21.79-6.53-21.79-15.67,0-7.18,3.84-12.16,12.57-17.06-4.16-4.33-5.88-8-5.88-12.08,0-8.32,7.02-14.04,17.79-14.04,9.87,0,16.4,5.06,16.4,13.14,0,5.88-3.43,10.2-11.18,14.44l10.45,9.71c1.22-2.53,2.2-5.55,2.86-8.89l10.2,3.18c-1.06,4.9-2.77,9.3-5.22,12.97l6.69,6.2-6.94,8.08ZM1452.44,1342.79h-13.22v-23.42h-25.95v23.42h-13.22v-57.12h13.22v22.52h25.95v-22.52h13.22v57.12ZM1502.05,1342.79h-13.22v-57.12h13.22v57.12ZM1574.83,1342.79l-11.02-15.91h-12.16v15.91h-13.22v-57.12h24.73c15.26,0,24.81,7.92,24.81,20.73,0,8.57-4.33,14.85-11.75,18.03l12.81,18.36h-14.2ZM1665.49,1342.79h-44.23v-57.12h43.17v10.61h-30.03v12.4h26.52v10.28h-26.52v13.22h31.09v10.61Z"/>
    </g>
  </g>
</svg>